<svg width="30" height="30" viewBox="0 0 30 30" fill="none" xmlns="http://www.w3.org/2000/svg">
<path d="M25 15.75C25.4142 15.75 25.75 15.4142 25.75 15C25.75 14.5858 25.4142 14.25 25 14.25V15.75ZM5 15L4.46967 14.4697C4.17678 14.7626 4.17678 15.2374 4.46967 15.5303L5 15ZM13.0303 8.03033C13.3232 7.73744 13.3232 7.26256 13.0303 6.96967C12.7374 6.67678 12.2626 6.67678 11.9697 6.96967L13.0303 8.03033ZM11.9697 23.0303C12.2626 23.3232 12.7374 23.3232 13.0303 23.0303C13.3232 22.7374 13.3232 22.2626 13.0303 21.9697L11.9697 23.0303ZM25 14.25H5V15.75H25V14.25ZM5.53033 15.5303L13.0303 8.03033L11.9697 6.96967L4.46967 14.4697L5.53033 15.5303ZM4.46967 15.5303L11.9697 23.0303L13.0303 21.9697L5.53033 14.4697L4.46967 15.5303Z" fill="white"/>
</svg>
