<svg width="8" height="8" viewBox="0 0 8 8" fill="none" xmlns="http://www.w3.org/2000/svg">
<path d="M7.6867 1.02033C7.88196 0.825066 7.88196 0.508484 7.6867 0.313222C7.49143 0.117959 7.17485 0.117959 6.97959 0.313222L7.6867 1.02033ZM0.31295 6.97986C0.117688 7.17512 0.117688 7.49171 0.312951 7.68697C0.508213 7.88223 0.824795 7.88223 1.02006 7.68697L0.31295 6.97986ZM1.02003 0.313195C0.824767 0.117933 0.508184 0.117932 0.312922 0.313195C0.11766 0.508457 0.11766 0.825039 0.312922 1.0203L1.02003 0.313195ZM6.97956 7.68694C7.17482 7.8822 7.49141 7.8822 7.68667 7.68694C7.88193 7.49168 7.88193 7.1751 7.68667 6.97983L6.97956 7.68694ZM6.97959 0.313222L0.31295 6.97986L1.02006 7.68697L7.6867 1.02033L6.97959 0.313222ZM0.312922 1.0203L6.97956 7.68694L7.68667 6.97983L1.02003 0.313195L0.312922 1.0203Z" fill="white"/>
</svg>
