<svg width="26" height="27" viewBox="0 0 26 27" fill="none" xmlns="http://www.w3.org/2000/svg">
<circle cx="12.7852" cy="13.5" r="3.75" stroke="white" stroke-width="1.5"/>
<path d="M14.992 1.1903C14.5325 1 13.9501 1 12.7853 1C11.6204 1 11.038 1 10.5786 1.1903C9.96598 1.44404 9.4793 1.93072 9.22556 2.54329C9.10974 2.82293 9.06441 3.14813 9.04667 3.62249C9.0206 4.3196 8.6631 4.96487 8.05896 5.31366C7.45482 5.66246 6.71726 5.64942 6.10052 5.32345C5.68083 5.10163 5.37653 4.97828 5.07645 4.93877C4.41908 4.85223 3.75425 5.03037 3.22823 5.434C2.83371 5.73672 2.5425 6.24112 1.96007 7.24991C1.37764 8.25871 1.08643 8.7631 1.02152 9.25613C0.934976 9.9135 1.11312 10.5783 1.51675 11.1043C1.70098 11.3444 1.95991 11.5463 2.36176 11.7988C2.95253 12.17 3.33264 12.8023 3.3326 13.5C3.33256 14.1977 2.95246 14.8299 2.36176 15.2011C1.95984 15.4536 1.70088 15.6554 1.51663 15.8956C1.11299 16.4216 0.934853 17.0864 1.0214 17.7438C1.08631 18.2368 1.37752 18.7412 1.95995 19.75C2.54237 20.7588 2.83359 21.2632 3.22811 21.5659C3.75413 21.9695 4.41896 22.1477 5.07632 22.0611C5.3764 22.0216 5.68068 21.8983 6.10033 21.6765C6.71712 21.3505 7.45473 21.3375 8.0589 21.6863C8.66308 22.0351 9.0206 22.6804 9.04667 23.3776C9.06441 23.8519 9.10974 24.1771 9.22556 24.4567C9.4793 25.0693 9.96598 25.556 10.5786 25.8097C11.038 26 11.6204 26 12.7853 26C13.9501 26 14.5325 26 14.992 25.8097C15.6045 25.556 16.0912 25.0693 16.345 24.4567C16.4608 24.1771 16.5061 23.8519 16.5239 23.3775C16.5499 22.6804 16.9074 22.0351 17.5115 21.6863C18.1157 21.3374 18.8533 21.3504 19.4701 21.6764C19.8897 21.8982 20.194 22.0216 20.4941 22.0611C21.1514 22.1476 21.8163 21.9695 22.3423 21.5658C22.7368 21.2631 23.028 20.7587 23.6105 19.7499C24.1929 18.7411 24.4841 18.2367 24.549 17.7437C24.6355 17.0863 24.4574 16.4215 24.0538 15.8955C23.8695 15.6554 23.6106 15.4535 23.2087 15.201C22.618 14.8298 22.2379 14.1975 22.2379 13.4999C22.238 12.8023 22.618 12.1701 23.2087 11.799C23.6107 11.5464 23.8696 11.3446 24.0539 11.1044C24.4575 10.5784 24.6357 9.91359 24.5491 9.25622C24.4842 8.76319 24.193 8.25879 23.6106 7.25C23.0282 6.24121 22.7369 5.73681 22.3424 5.43409C21.8164 5.03045 21.1516 4.85231 20.4942 4.93886C20.1941 4.97836 19.8898 5.1017 19.4702 5.3235C18.8534 5.64949 18.1158 5.66252 17.5116 5.3137C16.9074 4.96488 16.5499 4.31958 16.5239 3.62242C16.5061 3.1481 16.4608 2.82291 16.345 2.54329C16.0912 1.93072 15.6045 1.44404 14.992 1.1903Z" stroke="white" stroke-width="1.5"/>
</svg>
