<svg width="16" height="16" viewBox="0 0 16 16" fill="none" xmlns="http://www.w3.org/2000/svg">
<path d="M10.4638 9.19412L10.9062 7.57916C10.9381 7.45029 10.9324 7.31902 10.889 7.18537C10.8456 7.05172 10.7668 6.94724 10.6528 6.87193L9.30266 5.9308C9.21793 5.86185 9.12352 5.8478 9.01944 5.88863C8.91536 5.92947 8.84868 6.00637 8.81939 6.11934L8.3777 7.7343C8.34527 7.86317 8.35102 7.99444 8.39496 8.12809C8.43889 8.26174 8.51734 8.36622 8.63031 8.44153L9.98127 9.38266C10.0655 9.45161 10.1596 9.46566 10.2637 9.42483C10.3678 9.38399 10.4345 9.30709 10.4638 9.19412ZM2.26387 13.821L1.93437 13.6706C1.51857 13.4882 1.23876 13.1856 1.09493 12.7629C0.951098 12.3402 0.970711 11.9284 1.15377 11.5274L2.26387 9.11297V13.821ZM5.70403 15C5.27254 15 4.90329 14.8435 4.59627 14.5306C4.28926 14.2177 4.1355 13.8422 4.13497 13.4041V9.64519L5.87113 14.4829C5.91036 14.5858 5.94828 14.6778 5.98489 14.759C6.0215 14.8401 6.07223 14.9204 6.13709 15H5.70403ZM9.12614 14.2283C8.79141 14.3535 8.46635 14.3437 8.15097 14.1989C7.83559 14.0541 7.61644 13.8117 7.49353 13.4718L4.30757 4.60303C4.18414 4.2636 4.19616 3.93478 4.34366 3.61656C4.49115 3.29834 4.73252 3.07691 5.06778 2.95228L10.0966 1.08593C10.4313 0.960237 10.7556 0.972435 11.0694 1.12253C11.3832 1.27262 11.6016 1.51738 11.7245 1.85681L14.9136 10.7255C15.0376 11.065 15.0281 11.3938 14.8854 11.712C14.7426 12.0297 14.5035 12.2511 14.1683 12.3763L9.12614 14.2283ZM8.86332 13.4551L13.8812 11.6038C14.0119 11.5529 14.105 11.4688 14.1604 11.3516C14.2159 11.2344 14.2185 11.1095 14.1683 10.9769L11.0035 2.14878C10.9533 2.01619 10.8701 1.92205 10.754 1.86636C10.6379 1.81067 10.515 1.80802 10.3853 1.85841L5.37139 3.70964C5.24063 3.76055 5.14754 3.84461 5.0921 3.96182C5.03666 4.07904 5.03404 4.20394 5.08425 4.33653L8.24354 13.1647C8.29428 13.2973 8.37744 13.3914 8.49302 13.4471C8.60861 13.5028 8.73152 13.5054 8.86175 13.4551" fill="white"/>
</svg>
