<svg width="120" height="40" viewBox="0 0 120 40" fill="none" xmlns="http://www.w3.org/2000/svg">
<path d="M1 37.0678L1.76148 32.2178C1.83065 31.7773 2.47043 31.7938 2.51685 32.2373V32.2373C2.56575 32.7045 3.25176 32.6866 3.27632 32.2175L4.23595 13.8814L4.83989 35.6783C4.84175 35.7455 4.85292 35.8122 4.87308 35.8764V35.8764C5.10651 36.6198 6.18668 36.5275 6.2906 35.7553L6.46067 34.4915L7.26966 2.9322L7.47191 33.8475L7.8764 39L8.27457 31.3922C8.29938 30.9181 8.98748 30.8866 9.05556 31.3564V31.3564C9.12437 31.8312 9.82185 31.7919 9.83691 31.3124L10.1011 22.8983L10.9101 37.0678L11.7191 17.1017C11.9888 23.5424 12.5281 36.6814 12.5281 37.7119C12.5281 38.7424 13.8764 16.6723 14.5506 5.50847C14.8876 14.096 15.5213 31.9153 15.3596 34.4915C15.1978 37.0678 15.8315 16.6723 16.1685 6.15254C16.5056 16.2429 17.1798 36.6814 17.1798 37.7119C17.1798 39 17.5843 31.2712 17.5843 29.9831C17.5843 29.4091 17.7516 30.5399 17.9464 32.0626C18.0002 32.4834 18.6331 32.4693 18.6638 32.0462V32.0462C18.695 31.6154 19.319 31.6145 19.3506 32.0453C19.4642 33.5931 19.5661 35.0427 19.6067 35.7797C19.6919 37.3254 20.586 29.5537 21.0225 25.4746V33.8475L22.6404 15.1695L23.6517 2.9322V30.3212C23.6517 30.8537 24.4232 30.9238 24.5191 30.4V30.4C24.6102 29.903 25.3207 29.9318 25.368 30.4348C25.5283 32.1395 25.6742 33.8728 25.6742 34.4915C25.6742 35.4264 25.7807 33.6471 25.9164 31.8623C25.9569 31.3309 26.4217 30.995 26.5421 31.5142V31.5142C26.6813 32.115 27.5859 32.3624 27.6239 31.7468C27.7259 30.0935 27.827 27.9915 27.8989 25.4746C28.0607 19.8068 28.5056 9.80226 28.7079 5.50847C29.1798 13.8814 30.1236 31.2712 30.1236 33.8475C30.1236 37.0678 31.5393 5.50847 31.5393 6.15254C31.5393 6.6678 32.4831 26.9774 32.9551 37.0678L33.2591 27.063C33.2957 25.8573 35.0819 25.7315 35.304 26.9171C35.6993 29.0265 35.9888 30.4189 35.9888 29.9831C35.9888 28.6949 36.191 6.15254 36.3933 4.22034C36.5258 2.95382 37.12 15.437 37.5529 25.3027C37.5803 25.9271 38.4952 25.9643 38.5753 25.3445V25.3445C38.6542 24.7341 39.5402 24.7599 39.5826 25.3739C39.7188 27.3475 39.8315 29.067 39.8315 29.339C39.8315 29.9831 41.4494 12.5932 41.6517 12.5932C41.8135 12.5932 41.8539 25.0452 41.8539 31.2712L45.0899 1L44.6854 39L45.2136 33.9533C45.285 33.2718 46.27 33.2515 46.3693 33.9295V33.9295C46.4699 34.6156 47.469 34.5834 47.5246 33.8922C48.0702 27.1056 48.7303 18.7929 48.7303 18.3898C48.7303 18.2087 48.8137 19.5083 48.9364 21.5217C49.0118 22.7585 50.8387 22.7877 50.9489 21.5535C51.5338 14.9978 52.0756 8.97224 52.1685 8.08475C52.3708 6.15254 52.3708 28.6949 52.573 29.339C52.7348 29.8542 54.2584 15.3842 55 8.08475" stroke="white"/>
<path d="M55 8.86207L56.4382 29.339V29.339C56.5465 30.212 57.8247 30.1727 57.8792 29.2947L58.8352 13.8814L59.5497 35.6383C59.5528 35.7319 59.571 35.8244 59.6037 35.9122V35.9122C59.9144 36.7472 61.1315 36.6262 61.2718 35.7464L61.4719 34.4915L62.4307 2.9322L62.6704 33.8475V33.8475C62.7163 34.3403 63.4396 34.3292 63.4702 33.8351L63.6209 31.4056C63.6552 30.8524 64.4534 30.8092 64.5472 31.3555V31.3555C64.6422 31.9086 65.4532 31.8546 65.4741 31.2938L65.7865 22.8983L66.7453 37.0678L67.7042 17.1017C68.0238 23.5424 68.663 36.6814 68.663 37.7119C68.663 38.7424 70.261 16.6723 71.06 5.50847C71.4595 14.096 72.2105 31.9153 72.0188 34.4915C71.827 37.0678 72.5781 16.6723 72.9776 6.15254C73.3771 16.2429 74.1761 36.6814 74.1761 37.7119C74.1761 39 74.6555 31.2712 74.6555 29.983C74.6555 29.4083 74.8543 30.5431 75.0856 32.0691C75.1597 32.5582 75.8926 32.5387 75.9349 32.0458V32.0458C75.9782 31.5423 76.7051 31.5411 76.7489 32.0446C76.8835 33.5926 77.0043 35.0425 77.0525 35.7797C77.1534 37.3254 78.2131 29.5537 78.7304 25.4746V33.8475L80.648 15.1695L81.8465 2.9322V30.2846C81.8465 30.9081 82.7434 31.0044 82.8756 30.395V30.395C82.9999 29.8225 83.8167 29.8614 83.8816 30.4436C84.0712 32.1454 84.2435 33.8738 84.2435 34.4915C84.2435 35.4215 84.3684 33.666 84.5281 31.8909C84.5824 31.2866 85.1159 30.9437 85.2761 31.5288V31.5288C85.4657 32.2211 86.5033 32.4453 86.5556 31.7294C86.676 30.0788 86.7953 27.9827 86.8802 25.4746C87.0719 19.8068 87.5993 9.80226 87.839 5.50847C88.3983 13.8814 89.5169 31.2712 89.5169 33.8475C89.5169 37.0678 91.1948 5.50847 91.1948 6.15254C91.1948 6.6678 92.3134 26.9774 92.8727 37.0678L93.2885 25.5214C93.3312 24.3377 95.0636 24.193 95.3139 25.3507C95.9479 28.2839 96.4682 30.5198 96.4682 29.983C96.4682 28.6949 96.7079 6.15254 96.9476 4.22034C97.1046 2.95463 97.8081 15.4211 98.321 25.2838C98.359 26.014 99.4232 26.0661 99.5339 25.3433V25.3433C99.6427 24.6335 100.67 24.6688 100.728 25.3844C100.889 27.3536 101.023 29.0675 101.023 29.339C101.023 29.983 102.94 12.5932 103.18 12.5932C103.372 12.5932 103.42 25.0452 103.42 31.2712L107.255 1L106.775 39L107.4 33.9622C107.498 33.1714 108.635 33.1439 108.771 33.9289V33.9289C108.909 34.725 110.065 34.6809 110.142 33.8765C110.788 27.0928 111.569 18.7926 111.569 18.3898C111.569 18.1505 111.742 20.4957 111.966 23.6569C112.053 24.8763 113.844 24.9093 113.973 23.6936C114.747 16.3614 115.522 9.06824 115.644 8.08475C115.884 6.15254 115.884 28.6949 116.124 29.339C116.315 29.8542 118.121 15.3842 119 8.08475" stroke="white"/>
</svg>
