<svg width="36" height="38" viewBox="0 0 36 38" fill="none" xmlns="http://www.w3.org/2000/svg">
<path d="M18 2.61423e-08C18.2052 -4.30301e-05 18.407 0.0530996 18.5855 0.154245C18.7641 0.255391 18.9134 0.401087 19.0189 0.577125C22.2465 5.9565 25.9657 9.32187 29.1126 12.1719C29.3406 12.3745 29.5639 12.5764 29.7824 12.7775C32.9815 15.6845 35.8125 18.3991 35.8125 22.5625C35.813 24.0981 35.4412 25.6109 34.729 26.9714C34.0168 28.3318 32.9855 29.4994 31.7233 30.374C30.4611 31.2486 29.0057 31.8042 27.4818 31.9932C25.9579 32.1822 24.4109 31.999 22.9732 31.4593C23.5314 32.3855 24.1394 33.3165 24.688 34.1454C25.7188 35.7105 24.6642 38 22.655 38H13.345C11.3381 38 10.2812 35.7105 11.312 34.1454C11.9366 33.2025 12.5233 32.3 13.041 31.4521C11.6032 31.9946 10.0553 32.1802 8.52997 31.9929C7.00468 31.8057 5.54759 31.2512 4.28368 30.3771C3.01978 29.5029 1.9868 28.3353 1.27336 26.9742C0.559912 25.6131 0.187305 24.0992 0.1875 22.5625C0.1875 18.3991 3.0185 15.6845 6.21763 12.7775L6.885 12.1719C10.0343 9.32187 13.7535 5.9565 16.9811 0.577125C17.0866 0.401087 17.2359 0.255391 17.4145 0.154245C17.593 0.0530996 17.7948 -4.30301e-05 18 2.61423e-08ZM7.81362 14.535C4.4815 17.5655 2.5625 19.6009 2.5625 22.5625C2.56231 24.0175 3.00759 25.4377 3.83849 26.6322C4.66939 27.8267 5.84607 28.7381 7.21033 29.244C8.57459 29.7498 10.061 29.8259 11.4698 29.4619C12.8786 29.098 14.1421 28.3114 15.0906 27.208C15.2626 27.0082 15.4962 26.8714 15.7546 26.819C16.0129 26.7667 16.2814 26.8018 16.5176 26.9188C16.7538 27.0358 16.9444 27.2281 17.0593 27.4654C17.1741 27.7026 17.2068 27.9714 17.1521 28.2292C16.9289 29.2695 16.3684 30.4428 15.701 31.6208C14.9412 32.9245 14.1389 34.2029 13.2951 35.454C13.2867 35.4666 13.2826 35.4816 13.2832 35.4967C13.2828 35.521 13.2877 35.545 13.2976 35.5672C13.3074 35.5893 13.322 35.6091 13.3403 35.625H22.6597C22.678 35.6091 22.6926 35.5893 22.7024 35.5672C22.7123 35.545 22.7172 35.521 22.7168 35.4967C22.7174 35.4816 22.7133 35.4666 22.7049 35.454C21.9924 34.3734 21.1421 33.0671 20.4249 31.8084C19.7266 30.5876 19.0711 29.2814 18.8479 28.2292C18.7932 27.9714 18.8259 27.7026 18.9407 27.4654C19.0556 27.2281 19.2462 27.0358 19.4824 26.9188C19.7186 26.8018 19.9871 26.7667 20.2454 26.819C20.5038 26.8714 20.7374 27.0082 20.9094 27.208C21.8579 28.3114 23.1214 29.098 24.5302 29.4619C25.939 29.8259 27.4254 29.7498 28.7897 29.244C30.1539 28.7381 31.3306 27.8267 32.1615 26.6322C32.9924 25.4377 33.4377 24.0175 33.4375 22.5625C33.4375 19.6009 31.5185 17.5655 28.1864 14.535L27.5 13.9175C24.6595 11.343 21.1635 8.1795 18 3.4105C14.8365 8.1795 11.3405 11.343 8.5 13.9127L7.81362 14.535Z" fill="white"/>
</svg>
