<svg width="16" height="16" viewBox="0 0 16 16" fill="none" xmlns="http://www.w3.org/2000/svg">
<path d="M7.11141 3.42303L7.40025 3.0149L7.40025 3.0149L7.11141 3.42303ZM6.77681 3.18623L6.48797 3.59436L6.48797 3.59436L6.77681 3.18623ZM3.93959 2.77381L3.77246 2.30257L3.77246 2.30257L3.93959 2.77381ZM1.33752 10.0685L1.83745 10.06L1.33752 10.0685ZM8.88895 3.42302L9.17779 3.83115L9.17779 3.83115L8.88895 3.42302ZM9.22353 3.18623L8.93469 2.7781L8.93469 2.7781L9.22353 3.18623ZM12.0607 2.77381L11.8936 3.24505L11.8936 3.24505L12.0607 2.77381ZM14.6628 10.0685L15.1627 10.077L15.1627 10.077L14.6628 10.0685ZM13.5773 12.4562L13.7931 12.9073L13.7931 12.9073L13.5773 12.4562ZM11.6284 12.3755L11.9025 11.9574L11.9025 11.9574L11.6284 12.3755ZM2.42298 12.4562L2.20727 12.9073L2.20727 12.9073L2.42298 12.4562ZM4.37192 12.3755L4.646 12.7937L4.64601 12.7937L4.37192 12.3755ZM9.926 10.974L10.1562 10.5301L10.1562 10.5301L9.926 10.974ZM6.07433 10.974L6.30451 11.4179L6.30451 11.4179L6.07433 10.974ZM7.40025 3.0149L7.06565 2.7781L6.48797 3.59436L6.82257 3.83116L7.40025 3.0149ZM5.14352 2.16675H4.73521V3.16675H5.14352V2.16675ZM3.77246 2.30257C2.81029 2.64382 2.04936 3.42803 1.54821 4.69684C1.05222 5.95259 0.797543 7.70958 0.837592 10.077L1.83745 10.06C1.79847 7.75569 2.0506 6.14703 2.47829 5.0642C2.90081 3.99445 3.48043 3.46718 4.10673 3.24505L3.77246 2.30257ZM9.17779 3.83115L9.51237 3.59436L8.93469 2.7781L8.6001 3.01489L9.17779 3.83115ZM10.8568 3.16675H11.2651V2.16675H10.8568V3.16675ZM11.8936 3.24505C12.5199 3.46718 13.0995 3.99445 13.522 5.0642C13.9497 6.14702 14.2019 7.75568 14.1629 10.06L15.1627 10.077C15.2028 7.70958 14.9481 5.95259 14.4521 4.69684C13.951 3.42802 13.19 2.64382 12.2279 2.30257L11.8936 3.24505ZM13.3616 12.0052C13.1578 12.1026 12.9208 12.1667 12.649 12.1667V13.1667C13.084 13.1667 13.4676 13.063 13.7931 12.9073L13.3616 12.0052ZM12.649 12.1667C12.3256 12.1667 12.0837 12.0761 11.9025 11.9574L11.3543 12.7937C11.6929 13.0156 12.1244 13.1667 12.649 13.1667V12.1667ZM2.20727 12.9073C2.53274 13.063 2.91637 13.1667 3.3513 13.1667V12.1667C3.07952 12.1667 2.84254 12.1026 2.6387 12.0052L2.20727 12.9073ZM3.3513 13.1667C3.87591 13.1667 4.30741 13.0156 4.646 12.7937L4.09783 11.9574C3.91666 12.0761 3.67472 12.1667 3.3513 12.1667V13.1667ZM10.1562 10.5301C9.69576 10.2914 9.18471 10.1667 8.66606 10.1667V11.1667C9.02448 11.1667 9.37764 11.2529 9.69582 11.4179L10.1562 10.5301ZM11.9025 11.9574C11.6466 11.7896 11.4222 11.5642 11.138 11.2906C10.8707 11.0332 10.551 10.7349 10.1562 10.5301L9.69582 11.4179C9.94765 11.5485 10.1746 11.7512 10.4445 12.011C10.6975 12.2545 11.001 12.5621 11.3543 12.7937L11.9025 11.9574ZM14.1629 10.06C14.1554 10.5017 14.0996 10.9324 13.9653 11.2851C13.8335 11.6311 13.6388 11.8726 13.3616 12.0052L13.7931 12.9073C14.3652 12.6337 14.7052 12.152 14.8998 11.641C15.092 11.1366 15.1543 10.5766 15.1627 10.077L14.1629 10.06ZM11.2651 3.16675C11.5205 3.16675 11.7226 3.18442 11.8936 3.24505L12.2279 2.30257C11.8909 2.18306 11.5486 2.16675 11.2651 2.16675V3.16675ZM9.51237 3.59436C9.90548 3.31615 10.3752 3.16675 10.8568 3.16675V2.16675C10.1683 2.16675 9.4967 2.38035 8.93469 2.7781L9.51237 3.59436ZM0.837592 10.077C0.846045 10.5766 0.908372 11.1366 1.10049 11.641C1.29513 12.152 1.63515 12.6337 2.20727 12.9073L2.6387 12.0052C2.36153 11.8726 2.16678 11.6311 2.03499 11.2851C1.90068 10.9324 1.84492 10.5017 1.83745 10.06L0.837592 10.077ZM4.73521 2.16675C4.45172 2.16675 4.10943 2.18306 3.77246 2.30257L4.10673 3.24505C4.27768 3.18442 4.47978 3.16675 4.73521 3.16675V2.16675ZM7.06565 2.7781C6.50363 2.38035 5.83205 2.16675 5.14352 2.16675V3.16675C5.62512 3.16675 6.09486 3.31615 6.48797 3.59436L7.06565 2.7781ZM6.30451 11.4179C6.62268 11.2529 6.97585 11.1667 7.33426 11.1667V10.1667C6.81562 10.1667 6.30457 10.2914 5.84415 10.5301L6.30451 11.4179ZM8.00017 3.20571C7.78527 3.20571 7.57567 3.13904 7.40025 3.0149L6.82257 3.83116C7.1669 4.07485 7.57834 4.20571 8.00017 4.20571V3.20571ZM4.64601 12.7937C4.99933 12.5621 5.30287 12.2545 5.55583 12.011C5.82574 11.7512 6.05268 11.5485 6.30451 11.4179L5.84415 10.5301C5.44929 10.7349 5.12966 11.0332 4.86235 11.2906C4.5781 11.5642 4.35377 11.7896 4.09783 11.9574L4.64601 12.7937ZM8.00017 4.20571C8.42201 4.20571 8.83346 4.07484 9.17779 3.83115L8.6001 3.01489C8.42469 3.13904 8.21508 3.20571 8.00017 3.20571V4.20571ZM7.33426 11.1667H8.66606V10.1667H7.33426V11.1667Z" fill="white"/>
<path d="M5.75 6C5.75 5.58579 5.41421 5.25 5 5.25C4.58579 5.25 4.25 5.58579 4.25 6H5.75ZM4.25 8C4.25 8.41421 4.58579 8.75 5 8.75C5.41421 8.75 5.75 8.41421 5.75 8H4.25ZM4 6.25C3.58579 6.25 3.25 6.58579 3.25 7C3.25 7.41421 3.58579 7.75 4 7.75L4 6.25ZM6 7.75C6.41421 7.75 6.75 7.41421 6.75 7C6.75 6.58579 6.41421 6.25 6 6.25L6 7.75ZM4.25 6V8H5.75V6H4.25ZM4 7.75L6 7.75L6 6.25L4 6.25L4 7.75Z" fill="white"/>
<path d="M12.6665 6.83325C12.6665 7.10939 12.4426 7.33325 12.1665 7.33325C11.8904 7.33325 11.6665 7.10939 11.6665 6.83325C11.6665 6.55711 11.8904 6.33325 12.1665 6.33325C12.4426 6.33325 12.6665 6.55711 12.6665 6.83325Z" fill="white"/>
<path d="M10.6665 6.83325C10.6665 7.10939 10.4426 7.33325 10.1665 7.33325C9.89036 7.33325 9.6665 7.10939 9.6665 6.83325C9.6665 6.55711 9.89036 6.33325 10.1665 6.33325C10.4426 6.33325 10.6665 6.55711 10.6665 6.83325Z" fill="white"/>
<path d="M11.1665 5.33325C11.4426 5.33325 11.6665 5.55711 11.6665 5.83325C11.6665 6.10939 11.4426 6.33325 11.1665 6.33325C10.8904 6.33325 10.6665 6.10939 10.6665 5.83325C10.6665 5.55711 10.8904 5.33325 11.1665 5.33325Z" fill="white"/>
<path d="M11.1665 7.33325C11.4426 7.33325 11.6665 7.55711 11.6665 7.83325C11.6665 8.10939 11.4426 8.33325 11.1665 8.33325C10.8904 8.33325 10.6665 8.10939 10.6665 7.83325C10.6665 7.55711 10.8904 7.33325 11.1665 7.33325Z" fill="white"/>
</svg>
